<svg width="308.6" height="144.2" xmlns="http://www.w3.org/2000/svg">
 <style type="text/css">.st0{fill:#0091BD;}</style>

 <g>
  <title>background</title>
  <rect fill="none" id="canvas_background" height="402" width="582" y="-1" x="-1"/>
 </g>
 <g>
  <title>Layer 1</title>
  <path id="svg_1" d="m172.871689,61.583786l3.534836,0l0,20.924217l-3.534836,0l0,-2.181511c-1.556229,2.488777 -3.445892,2.826759 -4.535248,2.826759c-4.668655,0 -7.336441,-5.376991 -7.336441,-11.122711c0,-6.821121 3.379196,-10.999817 7.380905,-10.999817c1.111603,0 3.067947,0.399429 4.490784,2.980415l0,-2.427353l0,0zm-8.247925,10.569649c0,3.594925 1.645142,6.667488 4.201782,6.667488c2.223129,0 4.290695,-2.242981 4.290695,-6.606026c0,-4.57814 -2.045303,-6.759674 -4.290695,-6.759674c-2.556641,-0.030724 -4.201782,2.980392 -4.201782,6.698212zm15.984543,-10.569649l3.534836,0l0,1.874271c0.400146,-0.645237 0.978165,-1.35194 1.46727,-1.751373c0.689178,-0.553062 1.35611,-0.706684 2.156448,-0.706684c0.86705,0 1.800781,0.184357 2.778976,0.983215l-1.445068,4.424522c-0.800354,-0.706696 -1.445084,-0.73745 -1.800766,-0.73745c-0.755859,0 -1.511765,0.153648 -2.200928,1.136871c-0.978195,1.444115 -0.978195,3.441277 -0.978195,4.823944l0,10.8769l-3.534821,0l0.022247,-20.924217l0,0zm12.205154,0l3.534805,0l0,1.935719c1.178299,-1.997166 2.578873,-2.488781 3.734909,-2.488781c1.578461,0 3.067978,1.044678 3.912766,3.072578c1.267227,-2.4888 3.156906,-3.072578 4.490799,-3.072578c1.845215,0 3.445923,1.198311 4.312927,3.287643c0.289017,0.706688 0.800339,2.242981 0.800339,5.284836l0,12.935555l-3.534805,0l0,-11.49144c0,-2.335152 -0.177856,-3.287659 -0.333481,-3.717812c-0.222321,-0.798882 -0.755875,-1.843544 -2.023071,-1.843544c-0.867035,0 -1.62294,0.645241 -2.089798,1.536278c-0.622467,1.198318 -0.689178,2.9804 -0.689178,4.762497l0,10.784737l-3.534821,0l0,-11.522156c0,-2.335152 -0.177856,-3.287659 -0.333481,-3.717812c-0.22229,-0.798882 -0.755859,-1.843544 -2.023071,-1.843544c-0.86702,0 -1.622894,0.645241 -2.089737,1.536278c-0.622528,1.198318 -0.689224,2.9804 -0.689224,4.762497l0,10.784737l-3.445877,0l0,-20.985687z" class="st0"/>
  <text transform="matrix(2.11382, 0, 0, 1.55842, -23.8022, -16.8388)" xml:space="preserve" text-anchor="start" font-family="Arvo, sans-serif" font-size="24" id="svg_2" y="64.248107" x="9.55982" fill-opacity="null" stroke-opacity="null" stroke-width="0" stroke="null" fill="#000000">teamh   less</text>
 </g>
</svg>